<svg width="50" height="34" viewBox="0 0 50 34" fill="none" xmlns="http://www.w3.org/2000/svg">
<rect x="0.5" y="0.5" width="49" height="33" rx="9.5" fill="white" stroke="#DF2727"/>
<path d="M7.75781 21H5.97656L5.98828 20.0801H7.75781C8.36719 20.0801 8.875 19.9531 9.28125 19.6992C9.6875 19.4414 9.99219 19.082 10.1953 18.6211C10.4023 18.1562 10.5059 17.6133 10.5059 16.9922V16.4707C10.5059 15.9824 10.4473 15.5488 10.3301 15.1699C10.2129 14.7871 10.041 14.4648 9.81445 14.2031C9.58789 13.9375 9.31055 13.7363 8.98242 13.5996C8.6582 13.4629 8.28516 13.3945 7.86328 13.3945H5.94141V12.4688H7.86328C8.42188 12.4688 8.93164 12.5625 9.39258 12.75C9.85352 12.9336 10.25 13.2012 10.582 13.5527C10.918 13.9004 11.1758 14.3223 11.3555 14.8184C11.5352 15.3105 11.625 15.8652 11.625 16.4824V16.9922C11.625 17.6094 11.5352 18.166 11.3555 18.6621C11.1758 19.1543 10.916 19.5742 10.5762 19.9219C10.2402 20.2695 9.83398 20.5371 9.35742 20.7246C8.88477 20.9082 8.35156 21 7.75781 21ZM6.58008 12.4688V21H5.44922V12.4688H6.58008ZM18.7441 20.0801V21H14.2266V20.0801H18.7441ZM14.4551 12.4688V21H13.3242V12.4688H14.4551ZM18.1465 16.1367V17.0566H14.2266V16.1367H18.1465ZM18.6855 12.4688V13.3945H14.2266V12.4688H18.6855ZM25.3184 20.0801V21H21.0527V20.0801H25.3184ZM21.2754 12.4688V21H20.1445V12.4688H21.2754ZM32.0332 20.0801V21H27.5156V20.0801H32.0332ZM27.7441 12.4688V21H26.6133V12.4688H27.7441ZM31.4355 16.1367V17.0566H27.5156V16.1367H31.4355ZM31.9746 12.4688V13.3945H27.5156V12.4688H31.9746ZM36.7031 12.4688V21H35.5898V12.4688H36.7031ZM39.4453 12.4688V13.3945H32.8535V12.4688H39.4453ZM46.1309 20.0801V21H41.6133V20.0801H46.1309ZM41.8418 12.4688V21H40.7109V12.4688H41.8418ZM45.5332 16.1367V17.0566H41.6133V16.1367H45.5332ZM46.0723 12.4688V13.3945H41.6133V12.4688H46.0723Z" fill="#DF2727"/>
</svg>
