<svg width="50" height="34" viewBox="0 0 50 34" fill="none" xmlns="http://www.w3.org/2000/svg">
<path d="M16.1187 26.8177C16.9346 26.6523 17.408 25.5044 17.1759 24.254C16.9438 23.0035 16.0942 22.1239 15.2783 22.2893C14.4624 22.4548 13.989 23.6026 14.2211 24.8531C14.4532 26.1036 15.3027 26.9832 16.1187 26.8177Z" fill="#616161"/>
<path d="M15.1339 15.7629C15.0037 18.5582 15.2071 21.6639 15.5426 24.6505" stroke="#616161" stroke-width="6" stroke-miterlimit="10"/>
<path d="M35.808 24.8507C36.0401 23.6003 35.5669 22.4524 34.7509 22.2869C33.935 22.1214 33.0854 23.0009 32.8532 24.2514C32.6211 25.5019 33.0943 26.6498 33.9102 26.8153C34.7262 26.9808 35.5758 26.1012 35.808 24.8507Z" fill="#616161"/>
<path d="M34.8973 15.7629C35.0275 18.5582 34.8241 21.6639 34.4885 24.6505" stroke="#616161" stroke-width="6" stroke-miterlimit="10"/>
<path d="M35.1698 17.1595C34.1184 17.1084 33.2459 16.2837 33.1097 15.1932C32.9571 13.9581 32.5646 12.5317 31.5803 11.1628C30.0327 9.01367 27.7672 7.87641 25.0257 7.87641C23.1039 7.87641 20.4032 8.4461 18.4488 11.1628C17.4523 12.5488 17.0639 14.0049 16.9154 15.2591C16.7913 16.2985 15.986 17.1042 14.9834 17.1531L14.8614 17.1595C14.1577 17.1935 13.5761 16.5855 13.6168 15.8521C13.7144 14.0601 14.1455 10.8779 15.864 8.48862C18.0156 5.49559 21.2695 3.85028 25.0257 3.85028C28.7677 3.85028 32.0135 5.49559 34.1651 8.48436C35.8856 10.8758 36.3148 14.0601 36.4144 15.85C36.4551 16.5855 35.8734 17.1935 35.1698 17.1595V17.1595Z" fill="#616161"/>
<path d="M19.8765 29.2081C17.8997 29.4951 15.6322 27.9709 15.1746 24.4443C14.719 20.9326 16.3155 18.7984 17.9343 18.471L19.8765 29.2081V29.2081Z" fill="#424242"/>
<path d="M19.9904 17.744L18.2699 18.0523C17.9298 18.1208 17.6168 18.2933 17.3706 18.548C17.1244 18.8027 16.9561 19.1281 16.887 19.4829C16.6958 20.4628 16.5738 22.0295 16.9683 24.1659C17.3649 26.3001 18.0381 27.7052 18.5689 28.5406C18.9593 29.1571 19.667 29.4674 20.3626 29.325L22.0831 29.0168C22.9148 28.8488 23.1202 26.1874 22.5406 23.0754C21.9631 19.9633 20.8222 17.5761 19.9904 17.744Z" fill="#757575"/>
<path opacity="0.5" d="M22.2514 28.5379C22.945 28.3972 23.0746 25.9521 22.5409 23.0766C22.0073 20.2011 21.0124 17.984 20.3189 18.1246C19.6253 18.2652 19.4957 20.7103 20.0294 23.5858C20.563 26.4614 21.5579 28.6785 22.2514 28.5379Z" fill="#424242"/>
<path d="M22.138 23.1583C22.5 25.1054 22.5793 26.7274 22.317 26.7805C22.0546 26.8336 21.5462 25.2989 21.1862 23.3517C20.8242 21.4045 20.7449 19.7826 21.0073 19.7295C21.2696 19.6763 21.776 21.2111 22.138 23.1583V23.1583Z" fill="url(#paint0_linear_144_47)"/>
<path d="M30.1548 29.2081C32.1315 29.4951 34.3991 27.9709 34.8567 24.4443C35.3122 20.9326 33.7158 18.7984 32.097 18.471L30.1548 29.2081V29.2081Z" fill="#424242"/>
<path d="M30.0408 17.744L31.7613 18.0523C32.1014 18.1208 32.4144 18.2933 32.6606 18.548C32.9068 18.8027 33.0751 19.1281 33.1442 19.4829C33.3354 20.4628 33.4574 22.0295 33.0629 24.1659C32.6663 26.3001 31.9931 27.7052 31.4623 28.5406C31.2713 28.8423 30.9988 29.0779 30.6795 29.2175C30.3601 29.3572 30.0083 29.3946 29.6686 29.325L27.9481 29.0168C27.1164 28.8488 26.911 26.1874 27.4906 23.0754C28.0681 19.9633 29.209 17.5761 30.0408 17.744V17.744Z" fill="#757575"/>
<path opacity="0.5" d="M30.0008 23.5844C30.5347 20.7089 30.4052 18.2638 29.7117 18.1231C29.0181 17.9824 28.0232 20.1994 27.4893 23.0749C26.9555 25.9504 27.0849 28.3955 27.7785 28.5362C28.472 28.6769 29.467 26.4599 30.0008 23.5844Z" fill="#424242"/>
<path d="M27.8933 23.1583C27.5313 25.1054 27.4519 26.7274 27.7143 26.7805C27.9766 26.8336 28.4851 25.2989 28.845 23.3517C29.207 21.4045 29.2863 19.7826 29.024 19.7295C28.7616 19.6763 28.2553 21.2111 27.8933 23.1583V23.1583Z" fill="url(#paint1_linear_144_47)"/>
<path d="M36.2192 16.2007C35.6437 16.6089 34.9339 16.1497 34.7163 15.529C34.4641 13.9815 33.9659 12.1853 32.9897 10.7036C31.1614 7.77224 28.0885 6.30336 25.0156 6.30124C21.9427 6.30336 18.8698 7.77224 17.0415 10.7036C16.0653 12.1853 15.5691 13.9836 15.3149 15.529C15.0973 16.1497 14.3875 16.6089 13.812 16.2007C13.7652 16.1667 13.6941 16.0817 13.6208 16.0349C13.6778 16.6833 14.2188 17.1871 14.8614 17.1573L15.0383 17.1488C16.2951 17.1594 16.7934 16.324 16.9093 15.3143C17.0537 14.0495 17.4381 12.5679 18.4509 11.1628C20.4012 8.45247 23.0938 7.87853 25.0156 7.8764C26.9374 7.87853 29.63 8.45247 31.5803 11.1628C32.5769 12.5487 32.9653 14.0049 33.1137 15.259C33.2398 16.3113 33.7279 17.1594 35.1007 17.1552L35.1678 17.1594C35.8104 17.1913 36.3514 16.6854 36.4083 16.0371C36.3371 16.0817 36.266 16.1667 36.2192 16.2007V16.2007Z" fill="#424242"/>
<path d="M14.9794 11.8451C14.7902 11.7048 14.6418 11.5497 14.9123 10.4825C15.2397 9.19648 16.7589 6.70725 19.8196 5.05769C20.387 4.75159 21.7658 4.29455 22.1868 5.08745C22.5854 5.83996 20.6595 6.3884 19.9802 6.7689C18.2028 7.76799 16.9195 9.17735 16.2301 10.2912C16.0105 10.6462 15.4309 12.1767 14.9794 11.8451V11.8451Z" fill="#757575"/>
<rect x="0.5" y="0.5" width="49" height="33" rx="9.5" stroke="black"/>
<defs>
<linearGradient id="paint0_linear_144_47" x1="21.2472" y1="23.3527" x2="21.834" y2="23.2438" gradientUnits="userSpaceOnUse">
<stop offset="0.202" stop-color="#212121"/>
<stop offset="1" stop-color="#212121" stop-opacity="0"/>
</linearGradient>
<linearGradient id="paint1_linear_144_47" x1="28.7908" y1="23.341" x2="28.204" y2="23.2321" gradientUnits="userSpaceOnUse">
<stop offset="0.202" stop-color="#212121"/>
<stop offset="1" stop-color="#212121" stop-opacity="0"/>
</linearGradient>
</defs>
</svg>
