<svg width="39" height="39" viewBox="0 0 39 39" fill="none" xmlns="http://www.w3.org/2000/svg">
<path d="M19.5 9.74999C17.9916 9.74999 16.5449 10.3492 15.4783 11.4158C14.4117 12.4824 13.8125 13.9291 13.8125 15.4375C13.8125 15.8685 13.9837 16.2818 14.2885 16.5865C14.5932 16.8913 15.0065 17.0625 15.4375 17.0625C15.8685 17.0625 16.2818 16.8913 16.5865 16.5865C16.8913 16.2818 17.0625 15.8685 17.0625 15.4375C17.0625 14.9554 17.2055 14.4841 17.4733 14.0833C17.7411 13.6824 18.1218 13.37 18.5672 13.1855C19.0126 13.001 19.5027 12.9528 19.9755 13.0468C20.4484 13.1409 20.8827 13.373 21.2236 13.7139C21.5645 14.0548 21.7966 14.4891 21.8907 14.962C21.9847 15.4348 21.9364 15.9249 21.752 16.3703C21.5675 16.8157 21.255 17.1964 20.8542 17.4642C20.4534 17.732 19.9821 17.875 19.5 17.875C19.069 17.875 18.6557 18.0462 18.351 18.3509C18.0462 18.6557 17.875 19.069 17.875 19.5V22.75C17.875 23.181 18.0462 23.5943 18.351 23.899C18.6557 24.2038 19.069 24.375 19.5 24.375C19.931 24.375 20.3443 24.2038 20.6491 23.899C20.9538 23.5943 21.125 23.181 21.125 22.75V20.865C22.4382 20.4815 23.5685 19.6363 24.3075 18.4851C25.0466 17.3339 25.3447 15.9543 25.1468 14.6007C24.9489 13.2471 24.2684 12.0106 23.2307 11.1192C22.193 10.2278 20.868 9.7415 19.5 9.74999V9.74999Z" fill="black"/>
<path d="M19.5 29.25C20.3975 29.25 21.125 28.5225 21.125 27.625C21.125 26.7275 20.3975 26 19.5 26C18.6025 26 17.875 26.7275 17.875 27.625C17.875 28.5225 18.6025 29.25 19.5 29.25Z" fill="black"/>
<path d="M19.5 29.25C20.3975 29.25 21.125 28.5225 21.125 27.625C21.125 26.7275 20.3975 26 19.5 26C18.6025 26 17.875 26.7275 17.875 27.625C17.875 28.5225 18.6025 29.25 19.5 29.25Z" fill="black"/>
<path d="M20.93 3.25C17.7161 3.25 14.5743 4.20305 11.902 5.98862C9.22969 7.77419 7.14688 10.3121 5.91696 13.2814C4.68703 16.2507 4.36523 19.518 4.99224 22.6702C5.61925 25.8224 7.16691 28.7179 9.43952 30.9905C11.7121 33.2631 14.6076 34.8108 17.7598 35.4378C20.912 36.0648 24.1793 35.743 27.1486 34.513C30.1179 33.2831 32.6558 31.2003 34.4414 28.528C36.227 25.8557 37.18 22.7139 37.18 19.5C37.18 17.366 36.7597 15.2529 35.943 13.2814C35.1264 11.3099 33.9294 9.51847 32.4205 8.00951C30.9115 6.50056 29.1201 5.3036 27.1486 4.48696C25.1771 3.67032 23.064 3.25 20.93 3.25V3.25ZM20.93 32.5C18.3588 32.5 15.8454 31.7376 13.7076 30.3091C11.5697 28.8806 9.90351 26.8503 8.91957 24.4749C7.93563 22.0994 7.67818 19.4856 8.17979 16.9638C8.6814 14.4421 9.91953 12.1257 11.7376 10.3076C13.5557 8.48953 15.8721 7.2514 18.3938 6.74979C20.9156 6.24818 23.5294 6.50563 25.9049 7.48957C28.2803 8.47351 30.3106 10.1397 31.7391 12.2776C33.1676 14.4154 33.93 16.9288 33.93 19.5C33.93 22.9478 32.5604 26.2544 30.1224 28.6924C27.6844 31.1304 24.3778 32.5 20.93 32.5V32.5Z" fill="black"/>
</svg>
