<svg width="38" height="37" viewBox="0 0 38 37" fill="none" xmlns="http://www.w3.org/2000/svg">
<path d="M35.124 18.2471L19.8387 3.37482C19.7286 3.26745 19.5979 3.18226 19.454 3.12414C19.3101 3.06602 19.1558 3.0361 19 3.0361C18.8442 3.0361 18.69 3.06602 18.546 3.12414C18.4021 3.18226 18.2714 3.26745 18.1613 3.37482L2.876 18.2471C2.43069 18.6807 2.17834 19.2696 2.17834 19.8839C2.17834 21.1594 3.24338 22.1964 4.55334 22.1964H6.16389V32.8086C6.16389 33.4482 6.69455 33.9649 7.35139 33.9649H16.625V25.8711H20.7813V33.9649H30.6486C31.3055 33.9649 31.8361 33.4482 31.8361 32.8086V22.1964H33.4467C34.0776 22.1964 34.6824 21.9543 35.1277 21.5171C36.0518 20.6138 36.0518 19.1504 35.124 18.2471V18.2471Z" fill="black"/>
</svg>
