<svg width="39" height="41" viewBox="0 0 39 41" fill="none" xmlns="http://www.w3.org/2000/svg">
<path fill-rule="evenodd" clip-rule="evenodd" d="M39 11.7045V35.6064C39 36.941 38.413 38.2209 37.3682 39.1646C36.3233 40.1083 34.9062 40.6384 33.4286 40.6384V38.1224C34.1674 38.1224 34.8759 37.8573 35.3984 37.3855C35.9208 36.9137 36.2143 36.2737 36.2143 35.6064V11.7045H30.6429C29.5346 11.7045 28.4718 11.3069 27.6882 10.5991C26.9045 9.89137 26.4643 8.93144 26.4643 7.93051V2.89853H11.1429C10.404 2.89853 9.69548 3.16361 9.17306 3.63545C8.65064 4.10729 8.35714 4.74724 8.35714 5.41452V28.0585H5.57143V5.41452C5.57143 4.07996 6.15842 2.80005 7.20326 1.85637C8.24811 0.912692 9.66522 0.382538 11.1429 0.382538L26.4643 0.382538L39 11.7045ZM25.3194 36.0341H24.0853V34.5019H25.2609C25.5719 34.5074 25.8798 34.4443 26.1579 34.3182C26.4088 34.2037 26.6206 34.0297 26.7707 33.815C26.9182 33.6011 26.9919 33.3524 26.9824 33.1005C26.989 32.9133 26.9483 32.7271 26.8634 32.5562C26.7784 32.3853 26.6515 32.2342 26.4921 32.1142C26.1473 31.8555 25.7088 31.7211 25.2609 31.7368C25.022 31.7342 24.7845 31.7691 24.5589 31.84C24.3624 31.904 24.1803 31.9995 24.0212 32.1218C23.8764 32.2298 23.7574 32.3634 23.6717 32.5144C23.586 32.6654 23.5352 32.8306 23.5226 32.9999H21.4779C21.4946 32.6048 21.5893 32.24 21.762 31.9004C21.9375 31.5607 22.1882 31.2663 22.5141 31.0147C22.8401 30.7606 23.2384 30.5619 23.7064 30.4185C24.18 30.275 24.7204 30.2021 25.3305 30.197C26.1077 30.192 26.7791 30.3027 27.3446 30.5292C27.9101 30.7556 28.3474 31.0676 28.6594 31.4651C28.9756 31.8594 29.1444 32.3344 29.1414 32.8212C29.1668 33.2434 29.0503 33.6626 28.8071 34.0239C28.6178 34.3041 28.3673 34.5466 28.0709 34.7365C27.7744 34.9265 27.4382 35.0598 27.0827 35.1284V35.2315C27.4834 35.2732 27.8694 35.3922 28.2145 35.5806C28.5597 35.7691 28.8558 36.0224 29.0829 36.3235C29.3606 36.7136 29.5005 37.1707 29.484 37.6343C29.4896 38.1124 29.3809 38.5376 29.1581 38.9099C28.9373 39.2862 28.6237 39.6116 28.2416 39.861C27.8516 40.1151 27.4003 40.3138 26.8877 40.4497C26.3807 40.5831 25.8403 40.651 25.2636 40.651C24.4279 40.651 23.7092 40.5227 23.1186 40.266C22.5723 40.0381 22.1038 39.6819 21.762 39.2345C21.4561 38.8123 21.2846 38.3223 21.2661 37.818H23.2886C23.3097 38.0569 23.4129 38.2838 23.5839 38.4671C23.773 38.6641 24.0105 38.8183 24.2775 38.9175C24.5945 39.0291 24.9318 39.0863 25.272 39.086C25.6398 39.0937 26.0049 39.0284 26.3417 38.8948C26.6282 38.7764 26.8716 38.5871 27.0437 38.3489C27.2131 38.1097 27.2985 37.83 27.2889 37.5463C27.2956 37.2687 27.2107 36.9955 27.045 36.7617C26.8793 36.5278 26.6403 36.3437 26.3584 36.2329C26.0354 36.0933 25.6801 36.0252 25.3221 36.0341H25.3194ZM1.96671 40.4497V33.7572H2.07257L4.72457 39.1917H6.162L8.79729 33.7572H8.90314V40.4497H10.8949V30.3883H8.66636L5.49064 36.9198H5.41821L2.2425 30.3883H0V40.4522H1.96671V40.4497ZM17.1711 30.3883H12.714V40.4522H14.9203V37.0758H17.1572C17.9567 37.0758 18.6336 36.9298 19.1964 36.6405C19.7619 36.3436 20.1909 35.9461 20.4861 35.4454C20.7897 34.92 20.9439 34.3347 20.9346 33.7421C20.9346 33.1131 20.787 32.547 20.4945 32.0388C20.2037 31.536 19.7589 31.1193 19.2131 30.8386C18.5909 30.5225 17.8846 30.3668 17.1711 30.3883V30.3883ZM18.6894 33.7421C18.6999 34.0744 18.6185 34.4039 18.4526 34.7007C18.3044 34.9571 18.0744 35.1675 17.7924 35.3045C17.4681 35.4495 17.1094 35.5204 16.7477 35.5108H14.9091V31.9733H16.7477C17.3578 31.9733 17.8341 32.1243 18.1768 32.4312C18.5194 32.7332 18.6894 33.1735 18.6894 33.7421V33.7421Z" fill="black"/>
</svg>
