<svg width="48" height="48" viewBox="0 0 48 48" fill="none" xmlns="http://www.w3.org/2000/svg">
<path d="M20 22H14.202L14.204 21.982C14.4651 20.7032 14.9763 19.4887 15.708 18.408C16.7969 16.8036 18.3243 15.5463 20.108 14.786C20.712 14.53 21.342 14.334 21.984 14.204C23.3158 13.934 24.6882 13.934 26.02 14.204C27.9339 14.5962 29.6902 15.5428 31.07 16.926L33.902 14.102C32.6256 12.8252 31.1155 11.8061 29.454 11.1C28.6066 10.7412 27.7256 10.4679 26.824 10.284C24.9637 9.90599 23.0463 9.90599 21.186 10.284C20.2837 10.4686 19.402 10.7427 18.554 11.102C16.0551 12.1622 13.9159 13.9222 12.394 16.17C11.3698 17.6857 10.6535 19.388 10.286 21.18C10.23 21.45 10.2 21.726 10.16 22H4L12 30L20 22ZM28 26H33.798L33.796 26.016C33.2734 28.5795 31.7624 30.8341 29.59 32.292C28.5096 33.0243 27.2949 33.5355 26.016 33.796C24.6849 34.066 23.3131 34.066 21.982 33.796C20.7033 33.5348 19.4887 33.0237 18.408 32.292C17.8772 31.933 17.3817 31.5245 16.928 31.072L14.1 33.9C15.377 35.1763 16.8878 36.1949 18.55 36.9C19.398 37.26 20.284 37.534 21.18 37.716C23.0396 38.0942 24.9564 38.0942 26.816 37.716C30.4011 36.9719 33.5546 34.8588 35.606 31.826C36.6292 30.3114 37.3448 28.6105 37.712 26.82C37.766 26.55 37.798 26.274 37.838 26H44L36 18L28 26Z" fill="black"/>
</svg>
