<svg width="50" height="34" viewBox="0 0 50 34" fill="none" xmlns="http://www.w3.org/2000/svg">
<rect x="0.5" y="0.5" width="49" height="33" fill="white" stroke="#378706"/>
<path d="M16.5879 18.8438C16.5879 18.6445 16.5566 18.4688 16.4941 18.3164C16.4355 18.1602 16.3301 18.0195 16.1777 17.8945C16.0293 17.7695 15.8223 17.6504 15.5566 17.5371C15.2949 17.4238 14.9629 17.3086 14.5605 17.1914C14.1387 17.0664 13.7578 16.9277 13.418 16.7754C13.0781 16.6191 12.7871 16.4414 12.5449 16.2422C12.3027 16.043 12.1172 15.8145 11.9883 15.5566C11.8594 15.2988 11.7949 15.0039 11.7949 14.6719C11.7949 14.3398 11.8633 14.0332 12 13.752C12.1367 13.4707 12.332 13.2266 12.5859 13.0195C12.8438 12.8086 13.1504 12.6445 13.5059 12.5273C13.8613 12.4102 14.2578 12.3516 14.6953 12.3516C15.3359 12.3516 15.8789 12.4746 16.3242 12.7207C16.7734 12.9629 17.1152 13.2812 17.3496 13.6758C17.584 14.0664 17.7012 14.4844 17.7012 14.9297H16.5762C16.5762 14.6094 16.5078 14.3262 16.3711 14.0801C16.2344 13.8301 16.0273 13.6348 15.75 13.4941C15.4727 13.3496 15.1211 13.2773 14.6953 13.2773C14.293 13.2773 13.9609 13.3379 13.6992 13.459C13.4375 13.5801 13.2422 13.7441 13.1133 13.9512C12.9883 14.1582 12.9258 14.3945 12.9258 14.6602C12.9258 14.8398 12.9629 15.0039 13.0371 15.1523C13.1152 15.2969 13.2344 15.4316 13.3945 15.5566C13.5586 15.6816 13.7656 15.7969 14.0156 15.9023C14.2695 16.0078 14.5723 16.1094 14.9238 16.207C15.4082 16.3438 15.8262 16.4961 16.1777 16.6641C16.5293 16.832 16.8184 17.0215 17.0449 17.2324C17.2754 17.4395 17.4453 17.6758 17.5547 17.9414C17.668 18.2031 17.7246 18.5 17.7246 18.832C17.7246 19.1797 17.6543 19.4941 17.5137 19.7754C17.373 20.0566 17.1719 20.2969 16.9102 20.4961C16.6484 20.6953 16.334 20.8496 15.9668 20.959C15.6035 21.0645 15.1973 21.1172 14.748 21.1172C14.3535 21.1172 13.9648 21.0625 13.582 20.9531C13.2031 20.8438 12.8574 20.6797 12.5449 20.4609C12.2363 20.2422 11.9883 19.9727 11.8008 19.6523C11.6172 19.3281 11.5254 18.9531 11.5254 18.5273H12.6504C12.6504 18.8203 12.707 19.0723 12.8203 19.2832C12.9336 19.4902 13.0879 19.6621 13.2832 19.7988C13.4824 19.9355 13.707 20.0371 13.957 20.1035C14.2109 20.166 14.4746 20.1973 14.748 20.1973C15.1426 20.1973 15.4766 20.1426 15.75 20.0332C16.0234 19.9238 16.2305 19.7676 16.3711 19.5645C16.5156 19.3613 16.5879 19.1211 16.5879 18.8438ZM22.3242 13.2246L19.5 21H18.3457L21.5977 12.4688H22.3418L22.3242 13.2246ZM24.6914 21L21.8613 13.2246L21.8438 12.4688H22.5879L25.8516 21H24.6914ZM24.5449 17.8418V18.7676H19.752V17.8418H24.5449ZM29.2324 19.7051L31.7461 12.4688H32.9707L29.8125 21H28.9395L29.2324 19.7051ZM26.8828 12.4688L29.373 19.7051L29.6836 21H28.8105L25.6582 12.4688H26.8828ZM39.5391 20.0801V21H35.0215V20.0801H39.5391ZM35.25 12.4688V21H34.1191V12.4688H35.25ZM38.9414 16.1367V17.0566H35.0215V16.1367H38.9414ZM39.4805 12.4688V13.3945H35.0215V12.4688H39.4805Z" fill="#378706"/>
</svg>
