<svg width="37" height="35" viewBox="0 0 37 35" fill="none" xmlns="http://www.w3.org/2000/svg">
<path d="M9.79633 27.8177C10.596 27.6523 11.0598 26.5044 10.8324 25.254C10.605 24.0035 9.77237 23.1239 8.97274 23.2893C8.17312 23.4548 7.70927 24.6026 7.9367 25.8531C8.16412 27.1036 8.99671 27.9832 9.79633 27.8177Z" fill="#616161"/>
<path d="M8.8313 16.7629C8.70375 19.5582 8.90305 22.6639 9.2319 25.6505" stroke="#616161" stroke-width="6" stroke-miterlimit="10"/>
<path d="M29.0919 25.8507C29.3194 24.6003 28.8556 23.4524 28.056 23.2869C27.2564 23.1214 26.4238 24.0009 26.1962 25.2514C25.9687 26.5019 26.4325 27.6498 27.2321 27.8153C28.0317 27.9808 28.8644 27.1012 29.0919 25.8507Z" fill="#616161"/>
<path d="M28.1993 16.7629C28.3269 19.5582 28.1276 22.6639 27.7987 25.6505" stroke="#616161" stroke-width="6" stroke-miterlimit="10"/>
<path d="M28.4665 18.1595C27.4361 18.1084 26.5811 17.2837 26.4475 16.1932C26.2981 14.9581 25.9134 13.5317 24.9488 12.1628C23.4321 10.0137 21.2119 8.87641 18.5253 8.87641C16.6419 8.87641 13.9952 9.4461 12.0799 12.1628C11.1033 13.5488 10.7227 15.0049 10.5772 16.2591C10.4556 17.2985 9.66636 18.1042 8.68381 18.1531L8.56423 18.1595C7.87464 18.1935 7.30464 17.5855 7.3445 16.8521C7.44017 15.0601 7.86268 11.8779 9.54678 9.48862C11.6554 6.49559 14.8442 4.85028 18.5253 4.85028C22.1925 4.85028 25.3733 6.49559 27.4819 9.48436C29.168 11.8758 29.5885 15.0601 29.6862 16.85C29.7261 17.5855 29.156 18.1935 28.4665 18.1595V18.1595Z" fill="#616161"/>
<path d="M13.479 30.2081C11.5418 30.4951 9.31956 28.9709 8.87113 25.4443C8.42469 21.9326 9.98921 19.7984 11.5756 19.471L13.479 30.2081V30.2081Z" fill="#424242"/>
<path d="M13.5905 18.744L11.9044 19.0523C11.5711 19.1208 11.2643 19.2933 11.0231 19.548C10.7818 19.8027 10.6169 20.1281 10.5492 20.4829C10.3618 21.4628 10.2423 23.0295 10.6289 25.1659C11.0175 27.3001 11.6772 28.7052 12.1974 29.5406C12.5801 30.1571 13.2736 30.4674 13.9552 30.325L15.6413 30.0168C16.4565 29.8488 16.6578 27.1874 16.0898 24.0754C15.5237 20.9633 14.4057 18.5761 13.5905 18.744Z" fill="#757575"/>
<path opacity="0.5" d="M15.8064 29.5379C16.4861 29.3972 16.6131 26.9521 16.0902 24.0766C15.5672 21.2011 14.5922 18.984 13.9125 19.1246C13.2329 19.2652 13.1058 21.7103 13.6288 24.5858C14.1518 27.4614 15.1267 29.6785 15.8064 29.5379Z" fill="#424242"/>
<path d="M15.6952 24.1583C16.0499 26.1054 16.1277 27.7274 15.8706 27.7805C15.6135 27.8336 15.1152 26.2989 14.7624 24.3517C14.4077 22.4045 14.33 20.7826 14.5871 20.7295C14.8442 20.6763 15.3404 22.2111 15.6952 24.1583V24.1583Z" fill="url(#paint0_linear_223_34)"/>
<path d="M23.5516 30.2081C25.4888 30.4951 27.7111 28.9709 28.1595 25.4443C28.6059 21.9326 27.0414 19.7984 25.455 19.471L23.5516 30.2081V30.2081Z" fill="#424242"/>
<path d="M23.44 18.744L25.1261 19.0523C25.4594 19.1208 25.7662 19.2933 26.0074 19.548C26.2487 19.8027 26.4137 20.1281 26.4813 20.4829C26.6687 21.4628 26.7883 23.0295 26.4016 25.1659C26.013 27.3001 25.3533 28.7052 24.8331 29.5406C24.6459 29.8423 24.3788 30.0779 24.0659 30.2175C23.7529 30.3572 23.4082 30.3946 23.0753 30.325L21.3892 30.0168C20.574 29.8488 20.3727 27.1874 20.9408 24.0754C21.5068 20.9633 22.6249 18.5761 23.44 18.744V18.744Z" fill="#757575"/>
<path opacity="0.5" d="M23.4009 24.5844C23.9241 21.7089 23.7972 19.2638 23.1175 19.1231C22.4378 18.9824 21.4628 21.1994 20.9396 24.0749C20.4164 26.9504 20.5433 29.3955 21.223 29.5362C21.9026 29.6769 22.8777 27.4599 23.4009 24.5844Z" fill="#424242"/>
<path d="M21.3354 24.1583C20.9807 26.1054 20.903 27.7274 21.1601 27.7805C21.4171 27.8336 21.9154 26.2989 22.2682 24.3517C22.6229 22.4045 22.7006 20.7826 22.4436 20.7295C22.1865 20.6763 21.6902 22.2111 21.3354 24.1583V24.1583Z" fill="url(#paint1_linear_223_34)"/>
<path d="M29.4948 17.2007C28.9307 17.6089 28.2352 17.1497 28.0219 16.529C27.7748 14.9815 27.2865 13.1853 26.3299 11.7036C24.5381 8.77224 21.5267 7.30336 18.5152 7.30124C15.5038 7.30336 12.4924 8.77224 10.7006 11.7036C9.74399 13.1853 9.2577 14.9836 9.00857 16.529C8.79532 17.1497 8.09976 17.6089 7.53573 17.2007C7.48989 17.1667 7.42014 17.0817 7.34839 17.0349C7.40419 17.6833 7.93433 18.1871 8.56413 18.1573L8.73752 18.1488C9.9692 18.1594 10.4575 17.324 10.5711 16.3143C10.7126 15.0495 11.0893 13.5679 12.0818 12.1628C13.9931 9.45247 16.6318 8.87853 18.5152 8.8764C20.3986 8.87853 23.0374 9.45247 24.9487 12.1628C25.9253 13.5487 26.3059 15.0049 26.4514 16.259C26.575 17.3113 27.0533 18.1594 28.3986 18.1552L28.4644 18.1594C29.0942 18.1913 29.6243 17.6854 29.6801 17.0371C29.6104 17.0817 29.5406 17.1667 29.4948 17.2007V17.2007Z" fill="#424242"/>
<path d="M8.6798 12.8451C8.49445 12.7048 8.34896 12.5497 8.61403 11.4825C8.9349 10.1965 10.4237 7.70725 13.4232 6.05769C13.9792 5.75159 15.3305 5.29455 15.743 6.08745C16.1337 6.83996 14.2463 7.3884 13.5806 7.7689C11.8387 8.76799 10.5811 10.1773 9.9055 11.2912C9.69025 11.6462 9.12224 13.1767 8.6798 12.8451V12.8451Z" fill="#757575"/>
<rect x="0.5" y="0.5" width="36" height="34" rx="9.5" stroke="black"/>
<defs>
<linearGradient id="paint0_linear_223_34" x1="14.8222" y1="24.3527" x2="15.398" y2="24.248" gradientUnits="userSpaceOnUse">
<stop offset="0.202" stop-color="#212121"/>
<stop offset="1" stop-color="#212121" stop-opacity="0"/>
</linearGradient>
<linearGradient id="paint1_linear_223_34" x1="22.215" y1="24.341" x2="21.6392" y2="24.2363" gradientUnits="userSpaceOnUse">
<stop offset="0.202" stop-color="#212121"/>
<stop offset="1" stop-color="#212121" stop-opacity="0"/>
</linearGradient>
</defs>
</svg>
