<svg width="40" height="40" viewBox="0 0 40 40" fill="none" xmlns="http://www.w3.org/2000/svg">
<path d="M38.4 36.2H1.6C0.715 36.2 0 36.915 0 37.8V39.6C0 39.82 0.18 40 0.4 40H39.6C39.82 40 40 39.82 40 39.6V37.8C40 36.915 39.285 36.2 38.4 36.2ZM7.285 32C7.385 32 7.485 31.99 7.585 31.975L15.995 30.5C16.095 30.48 16.19 30.435 16.26 30.36L37.455 9.165C37.5014 9.11874 37.5381 9.0638 37.5632 9.00331C37.5883 8.94283 37.6012 8.87798 37.6012 8.8125C37.6012 8.74702 37.5883 8.68217 37.5632 8.62169C37.5381 8.5612 37.5014 8.50626 37.455 8.46L29.145 0.145C29.05 0.0500001 28.925 0 28.79 0C28.655 0 28.53 0.0500001 28.435 0.145L7.24 21.34C7.165 21.415 7.12 21.505 7.1 21.605L5.625 30.015C5.57636 30.2829 5.59374 30.5585 5.67563 30.8182C5.75753 31.0778 5.90147 31.3135 6.095 31.505C6.425 31.825 6.84 32 7.285 32V32Z" fill="black"/>
</svg>
