<svg width="50" height="34" viewBox="0 0 50 34" fill="none" xmlns="http://www.w3.org/2000/svg">
<rect x="0.5" y="0.5" width="49" height="33" rx="9.5" fill="white" stroke="black"/>
<path d="M11.7354 17.7393H12.6729C12.624 18.1885 12.4954 18.5905 12.2871 18.9453C12.0788 19.3001 11.7842 19.5817 11.4033 19.79C11.0225 19.9951 10.5472 20.0977 9.97754 20.0977C9.56087 20.0977 9.18164 20.0195 8.83984 19.8633C8.5013 19.707 8.20996 19.4857 7.96582 19.1992C7.72168 18.9095 7.53288 18.5628 7.39941 18.1592C7.26921 17.7523 7.2041 17.2998 7.2041 16.8018V16.0938C7.2041 15.5957 7.26921 15.1449 7.39941 14.7412C7.53288 14.3343 7.72331 13.986 7.9707 13.6963C8.22135 13.4066 8.52246 13.1836 8.87402 13.0273C9.22559 12.8711 9.62109 12.793 10.0605 12.793C10.5977 12.793 11.0518 12.8939 11.4229 13.0957C11.7939 13.2975 12.082 13.5775 12.2871 13.9355C12.4954 14.2904 12.624 14.7021 12.6729 15.1709H11.7354C11.6898 14.8389 11.6051 14.554 11.4814 14.3164C11.3577 14.0755 11.182 13.89 10.9541 13.7598C10.7262 13.6296 10.4284 13.5645 10.0605 13.5645C9.74479 13.5645 9.46647 13.6247 9.22559 13.7451C8.98796 13.8656 8.78776 14.0365 8.625 14.2578C8.46549 14.4792 8.34505 14.7445 8.26367 15.0537C8.18229 15.363 8.1416 15.7064 8.1416 16.084V16.8018C8.1416 17.1501 8.17741 17.4772 8.24902 17.7832C8.32389 18.0892 8.4362 18.3577 8.58594 18.5889C8.73568 18.82 8.92611 19.0023 9.15723 19.1357C9.38835 19.266 9.66178 19.3311 9.97754 19.3311C10.3779 19.3311 10.6969 19.2676 10.9346 19.1406C11.1722 19.0137 11.3512 18.8314 11.4717 18.5938C11.5954 18.3561 11.6833 18.0713 11.7354 17.7393ZM16.5889 13.5205L14.2354 20H13.2734L15.9834 12.8906H16.6035L16.5889 13.5205ZM18.5615 20L16.2031 13.5205L16.1885 12.8906H16.8086L19.5283 20H18.5615ZM18.4395 17.3682V18.1396H14.4453V17.3682H18.4395ZM25.9492 12.8906V20H25.002L21.4229 14.5166V20H20.4805V12.8906H21.4229L25.0166 18.3887V12.8906H25.9492ZM31.9111 17.7393H32.8486C32.7998 18.1885 32.6712 18.5905 32.4629 18.9453C32.2546 19.3001 31.96 19.5817 31.5791 19.79C31.1982 19.9951 30.723 20.0977 30.1533 20.0977C29.7367 20.0977 29.3574 20.0195 29.0156 19.8633C28.6771 19.707 28.3857 19.4857 28.1416 19.1992C27.8975 18.9095 27.7087 18.5628 27.5752 18.1592C27.445 17.7523 27.3799 17.2998 27.3799 16.8018V16.0938C27.3799 15.5957 27.445 15.1449 27.5752 14.7412C27.7087 14.3343 27.8991 13.986 28.1465 13.6963C28.3971 13.4066 28.6982 13.1836 29.0498 13.0273C29.4014 12.8711 29.7969 12.793 30.2363 12.793C30.7734 12.793 31.2275 12.8939 31.5986 13.0957C31.9697 13.2975 32.2578 13.5775 32.4629 13.9355C32.6712 14.2904 32.7998 14.7021 32.8486 15.1709H31.9111C31.8656 14.8389 31.7809 14.554 31.6572 14.3164C31.5335 14.0755 31.3577 13.89 31.1299 13.7598C30.902 13.6296 30.6042 13.5645 30.2363 13.5645C29.9206 13.5645 29.6423 13.6247 29.4014 13.7451C29.1637 13.8656 28.9635 14.0365 28.8008 14.2578C28.6413 14.4792 28.5208 14.7445 28.4395 15.0537C28.3581 15.363 28.3174 15.7064 28.3174 16.084V16.8018C28.3174 17.1501 28.3532 17.4772 28.4248 17.7832C28.4997 18.0892 28.612 18.3577 28.7617 18.5889C28.9115 18.82 29.1019 19.0023 29.333 19.1357C29.5641 19.266 29.8376 19.3311 30.1533 19.3311C30.5537 19.3311 30.8727 19.2676 31.1104 19.1406C31.348 19.0137 31.527 18.8314 31.6475 18.5938C31.7712 18.3561 31.859 18.0713 31.9111 17.7393ZM38.6494 19.2334V20H34.8848V19.2334H38.6494ZM35.0752 12.8906V20H34.1328V12.8906H35.0752ZM38.1514 15.9473V16.7139H34.8848V15.9473H38.1514ZM38.6006 12.8906V13.6621H34.8848V12.8906H38.6006ZM44.1279 19.2334V20H40.5732V19.2334H44.1279ZM40.7588 12.8906V20H39.8164V12.8906H40.7588Z" fill="black"/>
</svg>
